<svg height="447pt" viewBox="-7 0 447 447.93888" width="447pt" xmlns="http://www.w3.org/2000/svg"><path d="m88.46875 399.9375h128v16h-128zm0 0"/><path d="m336.46875 335.9375c-2.703125 0-5.34375-.214844-8-.40625v8.40625h16v-8.40625c-2.65625.191406-5.296875.40625-8 .40625zm0 0"/><path d="m320.46875 431.9375c0 8.839844 7.164062 16 16 16s16-7.160156 16-16v-72h-32zm0 0"/><path d="m300.46875 117.980469c-17.269531-75.347657-88.359375-125.710938-165.167969-117.015625-76.808593 8.695312-134.839843 73.675781-134.832031 150.972656 0 74.898438 123.542969 213.378906 152 244.273438 32.351562-35.121094 62.539062-72.167969 90.402344-110.945313-19.039063-28.929687-23.585938-65.050781-12.3125-97.796875 11.277344-32.746094 37.097656-58.414062 69.910156-69.488281zm-148 113.957031c-44.183594 0-80-35.816406-80-80 0-44.179688 35.816406-80 80-80s80 35.820312 80 80c-.046875 44.164062-35.835938 79.953125-80 80zm0 0"/><path d="m336.46875 127.9375c-53.019531 0-96 42.980469-96 96s42.980469 96 96 96 96-42.980469 96-96c-.054688-52.996094-43.003906-95.941406-96-96zm0 32c-35.34375 0-64 28.65625-64 64 0 35.347656 28.65625 64 64 64v16c-44.183594 0-80-35.816406-80-80 0-44.179688 35.816406-80 80-80zm0 0"/></svg>